<?xml version="1.0" encoding="UTF-8"?>
<svg viewBox="0 0 36 36" version="1.1" xmlns="http://www.w3.org/2000/svg" xmlns:xlink="http://www.w3.org/1999/xlink">
    <title>reviews</title>
    <g id="11、详情页" stroke="none" stroke-width="1" fill="none" fill-rule="evenodd">
        <g id="商品详情-未登录" transform="translate(-769.000000, -2526.000000)">
            <rect fill="#FFFFFF" x="0" y="0" width="1440" height="2958"></rect>
            <g id="底部" transform="translate(0.000000, 2494.000000)">
                <rect id="Rectangle-15" fill="#FFFFFF" x="0" y="0" width="1440" height="464"></rect>
                <g id="编组-12" transform="translate(80.000000, 32.000000)">
                    <g id="服务保障" transform="translate(689.000000, 0.000000)">
                        <g id="reviews">
                            <rect id="矩形" fill="#D8D8D8" opacity="0" x="0" y="0" width="36" height="36"></rect>
                            <circle id="椭圆形" stroke="#333333" stroke-width="2" fill="#FFFFFF" cx="19.6875" cy="18.5625" r="12.9375"></circle>
                            <g id="编组-16" transform="translate(24.750000, 14.625000) rotate(-330.000000) translate(-24.750000, -14.625000) translate(20.250000, 1.125000)" fill="#F7C63A" stroke="#333333" stroke-width="2.6">
                                <path d="M2.7625,0 L6.0125,0 C6.73047017,-3.53933586e-16 7.3125,0.582029825 7.3125,1.3 L7.3125,17.55 L7.3125,17.55 L1.4625,17.55 L1.4625,1.3 C1.4625,0.582029825 2.04452983,-9.01556235e-17 2.7625,0 Z" id="矩形"></path>
                                <path d="M4.3875,22.6416667 L6.175,25.025 L2.6,25.025 L4.3875,22.6416667 Z" id="三角形" transform="translate(4.387500, 23.400000) rotate(-180.000000) translate(-4.387500, -23.400000) "></path>
                            </g>
                            <path d="M3.2305625,18.5625 C1.833625,19.8248453 1.13515625,20.9586019 1.13515625,21.9637698 C1.13515625,23.4715216 2.07468901,24.4195115 3.6726034,24.6594814 C5.27051778,24.8994513 10.4955647,25.3261067 14.4403857,21.9637698" id="路径-4" stroke="#333333" stroke-width="2" stroke-linecap="round" stroke-linejoin="round"></path>
                        </g>
                        <text id="Wide-Choices" font-family="Helvetica" font-size="16" font-weight="normal" fill="#000000" fill-opacity="0.85">
                            <tspan x="44" y="15">Global Reviews</tspan>
                        </text>
                        <text id="A-selection-of-top-b" font-family="Helvetica" font-size="12" font-weight="normal" fill="#000000" fill-opacity="0.65">
                            <tspan x="44" y="34">A collection of reviews for making </tspan>
                            <tspan x="44" y="48">informed choices</tspan>
                        </text>
                    </g>
                    <g id="服务保障" transform="translate(689.000000, 0.000000)">
                        <g id="reviews">
                            <rect id="矩形" fill="#D8D8D8" opacity="0" x="0" y="0" width="36" height="36"></rect>
                            <circle id="椭圆形" stroke="#333333" stroke-width="2" fill="#FFFFFF" cx="19.6875" cy="18.5625" r="12.9375"></circle>
                            <g id="编组-16" transform="translate(24.750000, 14.625000) rotate(-330.000000) translate(-24.750000, -14.625000) translate(20.250000, 1.125000)" fill="#F7C63A" stroke="#333333" stroke-width="2.6">
                                <path d="M2.7625,0 L6.0125,0 C6.73047017,-3.53933586e-16 7.3125,0.582029825 7.3125,1.3 L7.3125,17.55 L7.3125,17.55 L1.4625,17.55 L1.4625,1.3 C1.4625,0.582029825 2.04452983,-9.01556235e-17 2.7625,0 Z" id="矩形"></path>
                                <path d="M4.3875,22.6416667 L6.175,25.025 L2.6,25.025 L4.3875,22.6416667 Z" id="三角形" transform="translate(4.387500, 23.400000) rotate(-180.000000) translate(-4.387500, -23.400000) "></path>
                            </g>
                            <path d="M3.2305625,18.5625 C1.833625,19.8248453 1.13515625,20.9586019 1.13515625,21.9637698 C1.13515625,23.4715216 2.07468901,24.4195115 3.6726034,24.6594814 C5.27051778,24.8994513 10.4955647,25.3261067 14.4403857,21.9637698" id="路径-4" stroke="#333333" stroke-width="2" stroke-linecap="round" stroke-linejoin="round"></path>
                        </g>
                        <g id="reviews">
                            <rect id="矩形" fill="#D8D8D8" opacity="0" x="0" y="0" width="36" height="36"></rect>
                            <circle id="椭圆形" stroke="#333333" stroke-width="2" fill="#FFFFFF" cx="19.6875" cy="18.5625" r="12.9375"></circle>
                            <g id="编组-16" transform="translate(24.750000, 14.625000) rotate(-330.000000) translate(-24.750000, -14.625000) translate(20.250000, 1.125000)" fill="#F7C63A" stroke="#333333" stroke-width="2.6">
                                <path d="M2.7625,0 L6.0125,0 C6.73047017,-3.53933586e-16 7.3125,0.582029825 7.3125,1.3 L7.3125,17.55 L7.3125,17.55 L1.4625,17.55 L1.4625,1.3 C1.4625,0.582029825 2.04452983,-9.01556235e-17 2.7625,0 Z" id="矩形"></path>
                                <path d="M4.3875,22.6416667 L6.175,25.025 L2.6,25.025 L4.3875,22.6416667 Z" id="三角形" transform="translate(4.387500, 23.400000) rotate(-180.000000) translate(-4.387500, -23.400000) "></path>
                            </g>
                            <path d="M3.2305625,18.5625 C1.833625,19.8248453 1.13515625,20.9586019 1.13515625,21.9637698 C1.13515625,23.4715216 2.07468901,24.4195115 3.6726034,24.6594814 C5.27051778,24.8994513 10.4955647,25.3261067 14.4403857,21.9637698" id="路径-4" stroke="#333333" stroke-width="2" stroke-linecap="round" stroke-linejoin="round"></path>
                        </g>
                    </g>
                </g>
            </g>
        </g>
    </g>
</svg>