<?xml version="1.0" encoding="UTF-8"?>
<svg viewBox="0 0 36 36" version="1.1" xmlns="http://www.w3.org/2000/svg" xmlns:xlink="http://www.w3.org/1999/xlink">
    <title>secure</title>
    <g id="11、详情页" stroke="none" stroke-width="1" fill="none" fill-rule="evenodd">
        <g id="商品详情-未登录" transform="translate(-1113.000000, -2526.000000)">
            <rect fill="#FFFFFF" x="0" y="0" width="1440" height="2958"></rect>
            <g id="底部" transform="translate(0.000000, 2494.000000)">
                <rect id="Rectangle-15" fill="#FFFFFF" x="0" y="0" width="1440" height="464"></rect>
                <g id="编组-12" transform="translate(80.000000, 32.000000)">
                    <g id="服务保障" transform="translate(1033.000000, 0.000000)">
                        <g id="secure">
                            <circle id="椭圆形" stroke="#333333" stroke-width="2" fill="#FFFFFF" cx="18" cy="7.875" r="4.5"></circle>
                            <rect id="矩形" stroke="#333333" stroke-width="2" fill="#FFFFFF" x="5.625" y="9" width="24.75" height="23.625" rx="2"></rect>
                            <path d="M18.0000491,28.125 C14.6509559,28.125 11.25,23.0604938 11.25,19.4217174 L11.25,15.2759592 C11.25,14.9182912 11.4684717,14.6016173 11.7937726,14.490119 L17.7485739,12.4180807 C17.91202,12.3606398 18.08798,12.3606398 18.2498938,12.4180807 L24.206247,14.490119 C24.529996,14.6032989 24.75,14.9199728 24.75,15.2759592 L24.75,19.4200358 C24.75,23.0604938 21.3475118,28.125 18.0000491,28.125 Z" id="Fill-4" stroke="#333333" stroke-width="2" fill="#3FB355"></path>
                            <path d="M18.7619135,16.875 C18.9623783,16.875 19.125,17.0376808 19.125,17.238081 L19.125,19.125 L21.0120303,19.125 C21.2124306,19.125 21.375,19.2876217 21.375,19.4881979 L21.375,21.0119135 C21.375,21.2123783 21.2124306,21.375 21.0120303,21.375 L19.125,21.375 L19.125,23.2620303 C19.125,23.4624306 18.9623783,23.625 18.7619135,23.625 L17.2380865,23.625 C17.0376217,23.625 16.875,23.4624306 16.875,23.2620303 L16.875,21.375 L14.9879697,21.375 C14.7875694,21.375 14.625,21.2123783 14.625,21.0119135 L14.625,19.4881979 C14.625,19.2876217 14.7875694,19.125 14.9879697,19.125 L16.875,19.125 L16.875,17.238081 C16.875,17.0376808 17.0376217,16.875 17.2380865,16.875 L18.7619135,16.875 Z" id="Fill-206" fill="#333333"></path>
                            <rect id="矩形" stroke="#979797" fill="#D8D8D8" opacity="0" x="0" y="0" width="36" height="36"></rect>
                        </g>
                        <text id="Wide-Choices" font-family="Helvetica" font-size="16" font-weight="normal" fill="#000000" fill-opacity="0.85">
                            <tspan x="44" y="15">Secure</tspan>
                        </text>
                        <text id="A-selection-of-top-b" font-family="Helvetica" font-size="12" font-weight="normal" fill="#000000" fill-opacity="0.65">
                            <tspan x="44" y="34">Committed to providing peace of </tspan>
                            <tspan x="44" y="48">mind</tspan>
                        </text>
                    </g>
                    <g id="服务保障" transform="translate(1033.000000, 0.000000)">
                        <g id="secure">
                            <circle id="椭圆形" stroke="#333333" stroke-width="2" fill="#FFFFFF" cx="18" cy="7.875" r="4.5"></circle>
                            <rect id="矩形" stroke="#333333" stroke-width="2" fill="#FFFFFF" x="5.625" y="9" width="24.75" height="23.625" rx="2"></rect>
                            <path d="M18.0000491,28.125 C14.6509559,28.125 11.25,23.0604938 11.25,19.4217174 L11.25,15.2759592 C11.25,14.9182912 11.4684717,14.6016173 11.7937726,14.490119 L17.7485739,12.4180807 C17.91202,12.3606398 18.08798,12.3606398 18.2498938,12.4180807 L24.206247,14.490119 C24.529996,14.6032989 24.75,14.9199728 24.75,15.2759592 L24.75,19.4200358 C24.75,23.0604938 21.3475118,28.125 18.0000491,28.125 Z" id="Fill-4" stroke="#333333" stroke-width="2" fill="#3FB355"></path>
                            <path d="M18.7619135,16.875 C18.9623783,16.875 19.125,17.0376808 19.125,17.238081 L19.125,19.125 L21.0120303,19.125 C21.2124306,19.125 21.375,19.2876217 21.375,19.4881979 L21.375,21.0119135 C21.375,21.2123783 21.2124306,21.375 21.0120303,21.375 L19.125,21.375 L19.125,23.2620303 C19.125,23.4624306 18.9623783,23.625 18.7619135,23.625 L17.2380865,23.625 C17.0376217,23.625 16.875,23.4624306 16.875,23.2620303 L16.875,21.375 L14.9879697,21.375 C14.7875694,21.375 14.625,21.2123783 14.625,21.0119135 L14.625,19.4881979 C14.625,19.2876217 14.7875694,19.125 14.9879697,19.125 L16.875,19.125 L16.875,17.238081 C16.875,17.0376808 17.0376217,16.875 17.2380865,16.875 L18.7619135,16.875 Z" id="Fill-206" fill="#333333"></path>
                            <rect id="矩形" stroke="#979797" fill="#D8D8D8" opacity="0" x="0" y="0" width="36" height="36"></rect>
                        </g>
                        <g id="secure">
                            <circle id="椭圆形" stroke="#333333" stroke-width="2" fill="#FFFFFF" cx="18" cy="7.875" r="4.5"></circle>
                            <rect id="矩形" stroke="#333333" stroke-width="2" fill="#FFFFFF" x="5.625" y="9" width="24.75" height="23.625" rx="2"></rect>
                            <path d="M18.0000491,28.125 C14.6509559,28.125 11.25,23.0604938 11.25,19.4217174 L11.25,15.2759592 C11.25,14.9182912 11.4684717,14.6016173 11.7937726,14.490119 L17.7485739,12.4180807 C17.91202,12.3606398 18.08798,12.3606398 18.2498938,12.4180807 L24.206247,14.490119 C24.529996,14.6032989 24.75,14.9199728 24.75,15.2759592 L24.75,19.4200358 C24.75,23.0604938 21.3475118,28.125 18.0000491,28.125 Z" id="Fill-4" stroke="#333333" stroke-width="2" fill="#3FB355"></path>
                            <path d="M18.7619135,16.875 C18.9623783,16.875 19.125,17.0376808 19.125,17.238081 L19.125,19.125 L21.0120303,19.125 C21.2124306,19.125 21.375,19.2876217 21.375,19.4881979 L21.375,21.0119135 C21.375,21.2123783 21.2124306,21.375 21.0120303,21.375 L19.125,21.375 L19.125,23.2620303 C19.125,23.4624306 18.9623783,23.625 18.7619135,23.625 L17.2380865,23.625 C17.0376217,23.625 16.875,23.4624306 16.875,23.2620303 L16.875,21.375 L14.9879697,21.375 C14.7875694,21.375 14.625,21.2123783 14.625,21.0119135 L14.625,19.4881979 C14.625,19.2876217 14.7875694,19.125 14.9879697,19.125 L16.875,19.125 L16.875,17.238081 C16.875,17.0376808 17.0376217,16.875 17.2380865,16.875 L18.7619135,16.875 Z" id="Fill-206" fill="#333333"></path>
                            <rect id="矩形" stroke="#979797" fill="#D8D8D8" opacity="0" x="0" y="0" width="36" height="36"></rect>
                        </g>
                    </g>
                </g>
            </g>
        </g>
    </g>
</svg>