<?xml version="1.0" encoding="UTF-8"?>
<svg viewBox="0 0 36 36" version="1.1" xmlns="http://www.w3.org/2000/svg" xmlns:xlink="http://www.w3.org/1999/xlink">
    <title>wide choice</title>
    <g id="11、详情页" stroke="none" stroke-width="1" fill="none" fill-rule="evenodd">
        <g id="商品详情-未登录" transform="translate(-81.000000, -2526.000000)">
            <rect fill="#FFFFFF" x="0" y="0" width="1440" height="2958"></rect>
            <g id="底部" transform="translate(0.000000, 2494.000000)">
                <rect id="Rectangle-15" fill="#FFFFFF" x="0" y="0" width="1440" height="464"></rect>
                <g id="编组-12" transform="translate(80.000000, 32.000000)">
                    <g id="服务保障" transform="translate(1.000000, 0.000000)">
                        <g id="wide-choice">
                            <rect id="矩形" x="0" y="0" width="36" height="36"></rect>
                            <g id="编组-2" transform="translate(4.500000, 21.375000)" fill="#FF5224" stroke="#333333" stroke-linejoin="round" stroke-width="2">
                                <polygon id="矩形" points="5.48673965 0 11.0769231 3.15922969 5.59018343 12.4615385 3.78968129 9.30230877 0 9.30230877"></polygon>
                                <polygon id="矩形备份-3" points="15.1048951 3.15922969 20.6950785 -1.72938587e-16 26.1818182 9.30230877 22.4110313 9.30230877 20.5916348 12.4615385"></polygon>
                            </g>
                            <circle id="椭圆形" stroke="#333333" stroke-width="2" fill="#FFFFFF" stroke-linejoin="round" cx="18" cy="14.625" r="11.25"></circle>
                            <path d="M17.0503192,13.6136066 L23.3339161,13.6136066 L23.3339161,20.4230769 L20.9671589,20.4230769 L20.9671589,15.8095745 L17.0503192,15.8095745 L17.0503192,13.6136066 Z M11.25,14.7152903 C11.25,13.8594558 11.4471019,13.0296757 11.841525,12.226471 C12.5583888,10.8576778 13.672086,9.90377457 15.183274,9.36476142 C15.7834543,9.12162188 16.6832866,9 17.8836473,9 L23.3339161,9 L23.3339161,11.2195211 L17.5918839,11.2195211 C15.8638728,11.2195211 14.6583627,11.9278878 13.9750248,13.3441 C13.7584208,13.8040121 13.6498449,14.261006 13.6498449,14.7152903 C13.6498449,15.1750981 13.7584208,15.6324047 13.9750248,16.0868974 C14.6583627,17.5031097 15.8638728,18.2113721 17.5918839,18.2113721 L20.0003842,18.2113721 L20.0003842,20.4230769 L17.8836473,20.4230769 C16.6832866,20.4230769 15.7834543,20.3015593 15.183274,20.0583155 C13.672086,19.5247217 12.5583888,18.5734239 11.841525,17.2045264 C11.4471019,16.401426 11.25,15.5715417 11.25,14.7152903 L11.25,14.7152903 Z" id="Fill-44" fill="#333333"></path>
                        </g>
                        <text id="Wide-Choices" font-family="Helvetica" font-size="16" font-weight="normal" fill="#000000" fill-opacity="0.85">
                            <tspan x="44" y="15">Wide Choices</tspan>
                        </text>
                        <text id="A-selection-of-top-b" font-family="Helvetica" font-size="12" font-weight="normal" fill="#000000" fill-opacity="0.65">
                            <tspan x="44" y="34">A selection of top brands around </tspan>
                            <tspan x="44" y="48">the world</tspan>
                        </text>
                    </g>
                    <g id="服务保障" transform="translate(1.000000, 0.000000)">
                        <g id="wide-choice">
                            <rect id="矩形" x="0" y="0" width="36" height="36"></rect>
                            <g id="编组-2" transform="translate(4.500000, 21.375000)" fill="#FF5224" stroke="#333333" stroke-linejoin="round" stroke-width="2">
                                <polygon id="矩形" points="5.48673965 0 11.0769231 3.15922969 5.59018343 12.4615385 3.78968129 9.30230877 0 9.30230877"></polygon>
                                <polygon id="矩形备份-3" points="15.1048951 3.15922969 20.6950785 -1.72938587e-16 26.1818182 9.30230877 22.4110313 9.30230877 20.5916348 12.4615385"></polygon>
                            </g>
                            <circle id="椭圆形" stroke="#333333" stroke-width="2" fill="#FFFFFF" stroke-linejoin="round" cx="18" cy="14.625" r="11.25"></circle>
                            <path d="M17.0503192,13.6136066 L23.3339161,13.6136066 L23.3339161,20.4230769 L20.9671589,20.4230769 L20.9671589,15.8095745 L17.0503192,15.8095745 L17.0503192,13.6136066 Z M11.25,14.7152903 C11.25,13.8594558 11.4471019,13.0296757 11.841525,12.226471 C12.5583888,10.8576778 13.672086,9.90377457 15.183274,9.36476142 C15.7834543,9.12162188 16.6832866,9 17.8836473,9 L23.3339161,9 L23.3339161,11.2195211 L17.5918839,11.2195211 C15.8638728,11.2195211 14.6583627,11.9278878 13.9750248,13.3441 C13.7584208,13.8040121 13.6498449,14.261006 13.6498449,14.7152903 C13.6498449,15.1750981 13.7584208,15.6324047 13.9750248,16.0868974 C14.6583627,17.5031097 15.8638728,18.2113721 17.5918839,18.2113721 L20.0003842,18.2113721 L20.0003842,20.4230769 L17.8836473,20.4230769 C16.6832866,20.4230769 15.7834543,20.3015593 15.183274,20.0583155 C13.672086,19.5247217 12.5583888,18.5734239 11.841525,17.2045264 C11.4471019,16.401426 11.25,15.5715417 11.25,14.7152903 L11.25,14.7152903 Z" id="Fill-44" fill="#333333"></path>
                        </g>
                        <g id="wide-choice">
                            <rect id="矩形" x="0" y="0" width="36" height="36"></rect>
                            <g id="编组-2" transform="translate(4.500000, 21.375000)" fill="#FF5224" stroke="#333333" stroke-linejoin="round" stroke-width="2">
                                <polygon id="矩形" points="5.48673965 0 11.0769231 3.15922969 5.59018343 12.4615385 3.78968129 9.30230877 0 9.30230877"></polygon>
                                <polygon id="矩形备份-3" points="15.1048951 3.15922969 20.6950785 -1.72938587e-16 26.1818182 9.30230877 22.4110313 9.30230877 20.5916348 12.4615385"></polygon>
                            </g>
                            <circle id="椭圆形" stroke="#333333" stroke-width="2" fill="#FFFFFF" stroke-linejoin="round" cx="18" cy="14.625" r="11.25"></circle>
                            <path d="M17.0503192,13.6136066 L23.3339161,13.6136066 L23.3339161,20.4230769 L20.9671589,20.4230769 L20.9671589,15.8095745 L17.0503192,15.8095745 L17.0503192,13.6136066 Z M11.25,14.7152903 C11.25,13.8594558 11.4471019,13.0296757 11.841525,12.226471 C12.5583888,10.8576778 13.672086,9.90377457 15.183274,9.36476142 C15.7834543,9.12162188 16.6832866,9 17.8836473,9 L23.3339161,9 L23.3339161,11.2195211 L17.5918839,11.2195211 C15.8638728,11.2195211 14.6583627,11.9278878 13.9750248,13.3441 C13.7584208,13.8040121 13.6498449,14.261006 13.6498449,14.7152903 C13.6498449,15.1750981 13.7584208,15.6324047 13.9750248,16.0868974 C14.6583627,17.5031097 15.8638728,18.2113721 17.5918839,18.2113721 L20.0003842,18.2113721 L20.0003842,20.4230769 L17.8836473,20.4230769 C16.6832866,20.4230769 15.7834543,20.3015593 15.183274,20.0583155 C13.672086,19.5247217 12.5583888,18.5734239 11.841525,17.2045264 C11.4471019,16.401426 11.25,15.5715417 11.25,14.7152903 L11.25,14.7152903 Z" id="Fill-44" fill="#333333"></path>
                        </g>
                    </g>
                </g>
            </g>
        </g>
    </g>
</svg>